<svg width="48" height="48" viewBox="0 0 48 48" fill="none" xmlns="http://www.w3.org/2000/svg">
<g clip-path="url(#clip0_195_4891)">
<path d="M38.3625 7.45499C37.8915 5.53538 36.7888 3.82983 35.2317 2.61242C33.6746 1.39501 31.7534 0.736415 29.7768 0.742473C27.8003 0.748531 25.8832 1.41889 24.3335 2.64582C22.7839 3.87275 21.6917 5.58502 21.2325 7.50749C21.1534 7.57693 21.0899 7.66224 21.0459 7.75786C21.002 7.85347 20.9787 7.95727 20.9775 8.06249V10.8975C20.9775 11.0964 21.0565 11.2872 21.1972 11.4278C21.3378 11.5685 21.5286 11.6475 21.7275 11.6475H23.175C23.7499 11.6475 24.3012 11.4191 24.7077 11.0126C25.1141 10.6062 25.3425 10.0548 25.3425 9.47999C25.3425 8.90513 25.1141 8.35382 24.7077 7.94734C24.3012 7.54085 23.7499 7.31249 23.175 7.31249H22.8375C23.313 5.84477 24.2402 4.56483 25.4865 3.65544C26.7328 2.74605 28.2346 2.25371 29.7774 2.24872C31.3203 2.24373 32.8252 2.72634 34.0774 3.62765C35.3296 4.52896 36.265 5.80288 36.75 7.26749H36.48C35.9321 7.29988 35.4172 7.54036 35.0407 7.93978C34.6642 8.33919 34.4545 8.86735 34.4545 9.41624C34.4545 9.96513 34.6642 10.4933 35.0407 10.8927C35.4172 11.2921 35.9321 11.5326 36.48 11.565H37.89C38.0889 11.565 38.2797 11.486 38.4203 11.3453C38.561 11.2047 38.64 11.0139 38.64 10.815V8.01749C38.6371 7.90926 38.6108 7.80294 38.5629 7.70584C38.515 7.60874 38.4466 7.52316 38.3625 7.45499Z" fill="#2B89CB"/>
<path d="M41.64 21.9375C40.9802 20.4352 39.8981 19.157 38.5254 18.2582C37.1526 17.3595 35.5483 16.8789 33.9075 16.875H33.24C33.0411 16.875 32.8503 16.954 32.7097 17.0947C32.569 17.2353 32.49 17.4261 32.49 17.625C32.49 18.3381 32.2067 19.022 31.7025 19.5262C31.1982 20.0305 30.5144 20.3137 29.8013 20.3137C29.0882 20.3137 28.4043 20.0305 27.9 19.5262C27.3958 19.022 27.1125 18.3381 27.1125 17.625C27.1125 17.4261 27.0335 17.2353 26.8928 17.0947C26.7522 16.954 26.5614 16.875 26.3625 16.875H25.695C24.0606 16.8861 22.4644 17.3701 21.0989 18.2684C19.7335 19.1667 18.6572 20.441 18 21.9375H41.64Z" fill="#2B89CB"/>
<path d="M46.5 47.2575H1.5C1.30109 47.2575 1.11032 47.1785 0.96967 47.0378C0.829018 46.8972 0.75 46.7064 0.75 46.5075C0.75 46.3086 0.829018 46.1178 0.96967 45.9772C1.11032 45.8365 1.30109 45.7575 1.5 45.7575H46.5C46.6989 45.7575 46.8897 45.8365 47.0303 45.9772C47.171 46.1178 47.25 46.3086 47.25 46.5075C47.25 46.7064 47.171 46.8972 47.0303 47.0378C46.8897 47.1785 46.6989 47.2575 46.5 47.2575Z" fill="#2B89CB"/>
<path d="M8.0625 40.455V42.8775C8.0625 43.0764 7.98348 43.2672 7.84283 43.4078C7.70218 43.5485 7.51141 43.6275 7.3125 43.6275C7.11359 43.6275 6.92282 43.5485 6.78217 43.4078C6.64152 43.2672 6.5625 43.0764 6.5625 42.8775V40.455C5.66559 40.629 4.85711 41.1095 4.27558 41.8142C3.69405 42.5189 3.37568 43.4039 3.375 44.3175V44.6325C3.375 44.8314 3.45402 45.0222 3.59467 45.1628C3.73532 45.3035 3.92609 45.3825 4.125 45.3825H10.5C10.6989 45.3825 10.8897 45.3035 11.0303 45.1628C11.171 45.0222 11.25 44.8314 11.25 44.6325V44.3175C11.2493 43.4039 10.9309 42.5189 10.3494 41.8142C9.76789 41.1095 8.95941 40.629 8.0625 40.455Z" fill="#2B89CB"/>
<path d="M28.605 33.8475L28.4025 35.0325L29.46 34.5075C29.5676 34.451 29.6872 34.4215 29.8088 34.4215C29.9303 34.4215 30.0499 34.451 30.1575 34.5075L31.215 35.0625L31.0125 33.8775C30.9928 33.7581 31.0023 33.6357 31.0402 33.5208C31.0781 33.4059 31.1432 33.3018 31.23 33.2175L32.085 32.3775L30.9 32.205C30.7798 32.1869 30.6659 32.14 30.5679 32.0681C30.4699 31.9963 30.3908 31.9017 30.3375 31.7925L29.8125 30.72L29.25 31.7625C29.1967 31.8717 29.1176 31.9663 29.0196 32.0381C28.9216 32.11 28.8077 32.1569 28.6875 32.175L27.5025 32.3475L28.3575 33.1875C28.4497 33.2688 28.5205 33.3715 28.5636 33.4866C28.6068 33.6017 28.621 33.7256 28.605 33.8475Z" fill="#2B89CB"/>
<path d="M46.7475 25.605C46.7586 25.2734 46.7026 24.943 46.5827 24.6337C46.4628 24.3244 46.2816 24.0425 46.05 23.805C45.8235 23.5677 45.5512 23.3788 45.2495 23.2499C44.9478 23.121 44.6231 23.0546 44.295 23.055H15.3225C14.9944 23.0546 14.6697 23.121 14.368 23.2499C14.0663 23.3788 13.794 23.5677 13.5675 23.805C13.3298 24.0518 13.1458 24.3451 13.0271 24.6665C12.9083 24.9879 12.8574 25.3304 12.8775 25.6725L14.88 41.6625V43.3125C14.8955 43.8604 15.1232 44.3808 15.5149 44.7642C15.9066 45.1475 16.4319 45.3638 16.98 45.3675H42.6075C43.1556 45.3638 43.6809 45.1475 44.0726 44.7642C44.4643 44.3808 44.692 43.8604 44.7075 43.3125V41.6625L46.71 25.6725C46.71 25.6725 46.7475 25.6275 46.7475 25.605ZM25.2075 31.605C25.251 31.4717 25.3309 31.3533 25.4383 31.2631C25.5457 31.173 25.6762 31.1147 25.815 31.095L28.11 30.7575L29.1375 28.6725C29.1997 28.5477 29.2955 28.4427 29.414 28.3693C29.5326 28.2959 29.6693 28.257 29.8088 28.257C29.9482 28.257 30.0849 28.2959 30.2035 28.3693C30.322 28.4427 30.4178 28.5477 30.48 28.6725L31.5 30.7575L33.795 31.095C33.9339 31.1151 34.0643 31.1739 34.1715 31.2645C34.2787 31.3551 34.3583 31.474 34.4013 31.6076C34.4443 31.7412 34.4489 31.8842 34.4146 32.0203C34.3804 32.1564 34.3086 32.2801 34.2075 32.3775L32.5575 33.9825L32.9475 36.2775C32.9704 36.4151 32.9544 36.5563 32.9014 36.6854C32.8484 36.8144 32.7605 36.9261 32.6475 37.0079C32.5346 37.0897 32.401 37.1384 32.2619 37.1485C32.1228 37.1586 31.9836 37.1296 31.86 37.065L29.8125 36.0075L27.75 37.065C27.6264 37.1296 27.4872 37.1586 27.3481 37.1485C27.209 37.1384 27.0754 37.0897 26.9625 37.0079C26.8495 36.9261 26.7616 36.8144 26.7086 36.6854C26.6556 36.5563 26.6396 36.4151 26.6625 36.2775L27.0525 33.9825L25.395 32.3625C25.2945 32.2642 25.2236 32.1397 25.1905 32.0031C25.1573 31.8665 25.1632 31.7234 25.2075 31.59V31.605ZM43.2075 43.3125C43.2017 43.4684 43.1362 43.6161 43.0245 43.725C42.9128 43.8339 42.7635 43.8957 42.6075 43.8975H17.0175C16.8615 43.8957 16.7122 43.8339 16.6005 43.725C16.4888 43.6161 16.4233 43.4684 16.4175 43.3125V42.4275H43.23L43.2075 43.3125Z" fill="#2B89CB"/>
<path d="M33.5925 9.43499C33.5921 8.81017 33.7933 8.2019 34.1662 7.70059C34.5392 7.19928 35.0639 6.8317 35.6625 6.65249C35.1171 5.56038 34.2772 4.6425 33.2377 4.00247C32.1982 3.36245 31.0005 3.02577 29.7798 3.03045C28.5591 3.03513 27.364 3.38098 26.3294 4.02896C25.2948 4.67694 24.462 5.60123 23.925 6.69749C24.545 6.87055 25.0903 7.24379 25.4761 7.75907C25.8618 8.27434 26.0664 8.90273 26.0578 9.54635C26.0493 10.19 25.8281 10.8127 25.4288 11.3175C25.0294 11.8224 24.4744 12.181 23.85 12.3375C24.37 13.5002 25.2178 14.4861 26.2896 15.1742C27.3614 15.8624 28.6107 16.223 29.8844 16.2118C31.158 16.2007 32.4008 15.8183 33.4604 15.1115C34.52 14.4047 35.3505 13.4042 35.85 12.2325C35.2129 12.0901 34.6428 11.7359 34.2328 11.2279C33.8228 10.7198 33.5971 10.0878 33.5925 9.43499Z" fill="#2B89CB"/>
</g>
<defs>
<clipPath id="clip0_195_4891">
<rect width="48" height="48" fill="white"/>
</clipPath>
</defs>
</svg>
